<svg width="32" height="34" viewBox="0 0 32 34" fill="none" xmlns="http://www.w3.org/2000/svg">
<path d="M1.6001 13.8C1.6001 7.7664 1.6001 4.7488 3.4753 2.8752C5.3489 1 8.3665 1 14.4001 1H17.6001C23.6337 1 26.6513 1 28.5249 2.8752C30.4001 4.7488 30.4001 7.7664 30.4001 13.8V20.2C30.4001 26.2336 30.4001 29.2512 28.5249 31.1248C26.6513 33 23.6337 33 17.6001 33H14.4001C8.3665 33 5.3489 33 3.4753 31.1248C1.6001 29.2512 1.6001 26.2336 1.6001 20.2V13.8Z" stroke="#371782" stroke-width="1.5"/>
<path d="M9.6001 13.7993H22.4001M9.6001 20.1993H17.6001" stroke="#371782" stroke-width="1.5" stroke-linecap="round"/>
</svg>
