<svg width="41" height="41" viewBox="0 0 41 41" fill="none" xmlns="http://www.w3.org/2000/svg">
<path d="M20.5001 6.77734C18.7491 6.77734 17.0153 7.12222 15.3976 7.79228C13.78 8.46235 12.3101 9.44447 11.072 10.6826C8.57151 13.1831 7.16675 16.5745 7.16675 20.1107C7.16675 26.004 10.9934 31.004 16.2868 32.7774C16.9534 32.884 17.1668 32.4707 17.1668 32.1107V29.8573C13.4734 30.6574 12.6867 28.0707 12.6867 28.0707C12.0734 26.524 11.2067 26.1107 11.2067 26.1107C9.99342 25.284 11.3001 25.3107 11.3001 25.3107C12.6334 25.404 13.3401 26.684 13.3401 26.684C14.5001 28.7107 16.4601 28.1107 17.2201 27.7907C17.3401 26.924 17.6868 26.3373 18.0601 26.004C15.1001 25.6707 11.9934 24.524 11.9934 19.444C11.9934 17.964 12.5001 16.7773 13.3668 15.8307C13.2334 15.4973 12.7667 14.1107 13.5001 12.3107C13.5001 12.3107 14.6201 11.9507 17.1668 13.6707C18.2201 13.3773 19.3668 13.2307 20.5001 13.2307C21.6334 13.2307 22.7801 13.3773 23.8334 13.6707C26.3801 11.9507 27.5001 12.3107 27.5001 12.3107C28.2334 14.1107 27.7668 15.4973 27.6334 15.8307C28.5001 16.7773 29.0068 17.964 29.0068 19.444C29.0068 24.5373 25.8868 25.6573 22.9134 25.9907C23.3934 26.404 23.8334 27.2174 23.8334 28.4573V32.1107C23.8334 32.4707 24.0468 32.8974 24.7268 32.7774C30.0201 30.9907 33.8334 26.004 33.8334 20.1107C33.8334 18.3597 33.4885 16.6259 32.8185 15.0082C32.1484 13.3906 31.1663 11.9207 29.9282 10.6826C28.6901 9.44447 27.2202 8.46235 25.6025 7.79228C23.9849 7.12222 22.251 6.77734 20.5001 6.77734Z" fill="black"/>
</svg>
