<svg width="41" height="41" viewBox="0 0 41 41" fill="none" xmlns="http://www.w3.org/2000/svg">
<g clip-path="url(#clip0_534_1178)">
<path d="M11.7728 32.0546V19.6908L7.93838 16.183L4.5 14.2363V29.8727C4.5 31.08 5.47813 32.0546 6.68188 32.0546H11.7728Z" fill="#4285F4"/>
<path d="M29.2273 32.0545H34.3182C35.5255 32.0545 36.5 31.0762 36.5 29.8726V14.2363L32.6055 16.466L29.2273 19.6907V32.0545Z" fill="#34A853"/>
<path d="M11.7727 19.6908L11.251 14.86L11.7727 10.2363L20.5 16.7818L29.2272 10.2363L29.8109 14.6103L29.2272 19.6908L20.5 26.2363L11.7727 19.6908Z" fill="#EA4335"/>
<path d="M29.2273 10.2363V19.6908L36.5 14.2363V11.3272C36.5 8.62905 33.42 7.09093 31.2638 8.70905L29.2273 10.2363Z" fill="#FBBC04"/>
<path d="M4.5 14.2364L7.84488 16.7451L11.7728 19.6909V10.2364L9.73625 8.70911C7.57625 7.09086 4.5 8.62911 4.5 11.3271V14.2364Z" fill="#C5221F"/>
</g>
<defs>
<clipPath id="clip0_534_1178">
<rect width="32" height="24.125" fill="white" transform="translate(4.5 8.04834)"/>
</clipPath>
</defs>
</svg>
