<svg width="41" height="41" viewBox="0 0 41 41" fill="none" xmlns="http://www.w3.org/2000/svg">
<g clip-path="url(#clip0_534_1185)">
<path d="M33.5 4.86096H7.5C6.91008 4.85495 6.34187 5.08322 5.92005 5.49566C5.49823 5.90811 5.25725 6.47105 5.25 7.06096V33.166C5.25856 33.755 5.50012 34.3166 5.92179 34.728C6.34347 35.1394 6.91093 35.367 7.5 35.361H33.5C34.09 35.3656 34.6578 35.1366 35.0794 34.7239C35.501 34.3112 35.7421 33.7484 35.75 33.1585V7.05346C35.7395 6.46528 35.4972 5.90502 35.0759 5.49447C34.6546 5.08392 34.0883 4.85625 33.5 4.86096Z" fill="#0076B2"/>
<path d="M9.76503 16.2935H14.2925V30.861H9.76503V16.2935ZM12.03 9.04346C12.5493 9.04346 13.0569 9.19747 13.4887 9.48602C13.9204 9.77457 14.2568 10.1847 14.4555 10.6645C14.6541 11.1443 14.7059 11.6722 14.6044 12.1815C14.5029 12.6908 14.2527 13.1585 13.8853 13.5255C13.5179 13.8925 13.05 14.1423 12.5406 14.2433C12.0312 14.3443 11.5034 14.292 11.0238 14.0929C10.5441 13.8939 10.1343 13.557 9.84621 13.125C9.55807 12.693 9.40454 12.1852 9.40503 11.666C9.40569 10.9702 9.68255 10.3032 10.1748 9.81142C10.667 9.31968 11.3343 9.04346 12.03 9.04346ZM17.1325 16.2935H21.4725V18.2935H21.5325C22.1375 17.1485 23.6125 15.941 25.815 15.941C30.4 15.931 31.25 18.9485 31.25 22.861V30.861H26.7225V23.7735C26.7225 22.086 26.6925 19.9135 24.37 19.9135C22.0475 19.9135 21.6525 21.7535 21.6525 23.6635V30.861H17.1325V16.2935Z" fill="white"/>
</g>
<defs>
<clipPath id="clip0_534_1185">
<rect width="32" height="32" fill="white" transform="translate(4.5 4.11084)"/>
</clipPath>
</defs>
</svg>
